<svg xmlns="http://www.w3.org/2000/svg" version="1.1" xmlns:xlink="http://www.w3.org/1999/xlink" xmlns:svgjs="http://svgjs.dev/svgjs" width="1500" height="1500" viewBox="0 0 1500 1500"><rect width="1500" height="1500" fill="#000000"></rect><g transform="matrix(0.6666666666666666,0,0,0.6666666666666666,249.39436519522388,621.3218082862438)"><svg viewBox="0 0 396 102" data-background-color="#ffffff" preserveAspectRatio="xMidYMid meet" height="386" width="1500" xmlns="http://www.w3.org/2000/svg" xmlns:xlink="http://www.w3.org/1999/xlink"><g id="tight-bounds" transform="matrix(1,0,0,1,0.24008861730862918,0.004870654307978839)"><svg viewBox="0 0 395.52 101.99036507964864" height="101.99036507964864" width="395.52"><g><svg viewBox="0 0 395.52 101.99036507964864" height="101.99036507964864" width="395.52"><g><svg viewBox="0 0 395.52 101.99036507964864" height="101.99036507964864" width="395.52"><g id="textblocktransform"><svg viewBox="0 0 395.52 101.99036507964864" height="101.99036507964864" width="395.52" id="textblock"><g><svg viewBox="0 0 395.52 101.99036507964864" height="101.99036507964864" width="395.52"><path d="M394.594 21.875C392.735 11.288 387.435 8.345 387.435 8.345 371.165-2.559 350.86-0.209 332.619 1.358 300.414 1.422 268.339 3.751 236.208 5 168.767 5.191 100.749 2.057 33.643 9.785 27.339 12.157-6.54 10.251 1.121 23.23 3.129 28.629 10.456 34.621 10.232 39.576 11.236 40.444 12.631 38.454 13.226 39.703 15.309 43.069 18.711 41.481 21.501 43.472 17.614 48.786 20.403 53.211 23.062 57.848 18.377 59.055 12.371 58.483 9.675 62.485 9.396 65.386 7.89 64.835 6.235 64.708 5.026 64.624 2.59 64.941 2.999 65.852 4.394 68.964-1.594 70.764 2.162 73.813-0.422 77.116 3.948 79.974 3.353 83.552 3.278 84.272 3.687 84.886 4.338 85.056 7.22 85.966 3.018 87.745 3.464 89.671 33.029 102.841 65.104 93.737 95.394 99.792 103.259 95.557 97.346 101.295 100.489 100.406 102.943 99.369 104.728 103.667 107.499 101.232 107.927 100.533 107.276 98.882 108.8 99.199 109.6 99.369 110.307 99.326 110.418 98.352 110.586 96.891 109.117 97.802 108.726 97.04 112.947 93.186 111.906 102.354 115.866 101.973 115.68 100.851 114.528 99.242 116.889 99.453 119.232 97.844 119.306 96.51 121.389 100.131 121.463 100.914 121.835 101.465 122.43 101.846 128.938 97.908 135.409 103.243 142.233 101.465 146.417 99.517 150.433 102.523 154.672 101.782 156.16 101.19 157.666 100.131 159.098 101.909 176.632 102.291 195.319 100.703 211.943 101.973 256.364 99.602 303.836 102.947 350.674 99.813 361.719 98.606 373.192 96.891 383.958 95.515 383.958 95.515 392.679 91.746 392.679 74.808S394.538 59.987 394.817 46.499C395.096 33.012 396.398 32.462 394.538 21.875Z" opacity="1" fill="#ffffff" data-fill-palette-color="tertiary"></path><g transform="matrix(1,0,0,1,55.76832,26.230666666666668)"><svg width="283.98335999999995" viewBox="2.35 -38.5 223.88 39.05" height="49.529031746315304" data-palette-color="#ffffff"><path d="M13.7 0.5L13.7 0.5Q9.9 0.5 7.38-1.13 4.85-2.75 3.6-5.65 2.35-8.55 2.35-12.3L2.35-12.3Q2.35-16.1 3.63-18.98 4.9-21.85 7.45-23.48 10-25.1 13.8-25.1L13.8-25.1Q16-25.1 17.65-24.6 19.3-24.1 21.55-23.3L21.55-23.3 21.05-17.35 18.3-17.5 18.3-19.2Q18.3-19.6 18.03-20.53 17.75-21.45 17.5-22.25L17.5-22.25 19.05-20.65Q17.7-21.35 16.38-21.88 15.05-22.4 13.75-22.4L13.75-22.4Q11.2-22.4 9.68-20.88 8.15-19.35 7.45-17.05 6.75-14.75 6.75-12.3L6.75-12.3Q6.75-9.85 7.43-7.63 8.1-5.4 9.6-4 11.1-2.6 13.65-2.6L13.65-2.6Q15.5-2.6 17.23-3.1 18.95-3.6 20.75-4.45L20.75-4.45 22.1-2.15Q20-0.75 17.95-0.13 15.9 0.5 13.7 0.5ZM25.35 0.25L25.35 0.25 25.1-2.15 30.7-3.3 28.7-1.45Q28.8-1.85 28.97-2.85 29.15-3.85 29.32-4.98 29.5-6.1 29.5-6.7L29.5-6.7 29.5-30.9Q29.5-31.55 29.37-32.58 29.25-33.6 29.07-34.7 28.9-35.8 28.75-36.55L28.75-36.55 30.7-34.25 25.2-35.45 25.45-37.95 29.9-37.8 32.65-37.8 33.6-36.9Q33.55-36.15 33.47-34.83 33.4-33.5 33.35-32.05 33.3-30.6 33.3-29.4L33.3-29.4 33.3-19.65 32.85-20.55Q33.7-22.25 35.62-23.7 37.55-25.15 40.45-25.15L40.45-25.15Q43.95-25.15 45.75-23.7 47.55-22.25 48.2-19.65 48.85-17.05 48.85-13.55L48.85-13.55 48.85-8.2Q48.85-6.35 49.02-4.55 49.2-2.75 49.35-1.75L49.35-1.75 47.55-3.1 53.2-2.6 52.85 0 46.45 0Q46.1 0 45.22 0.05 44.35 0.1 43.32 0.15 42.3 0.2 41.45 0.25L41.45 0.25 41.2-2.15 46.2-3.35 44.35-2.2Q44.5-2.7 44.67-3.43 44.85-4.15 44.97-5 45.1-5.85 45.1-6.7L45.1-6.7 45.1-13.65Q45.1-15.85 44.7-17.82 44.3-19.8 43.15-21.05 42-22.3 39.8-22.3L39.8-22.3Q36.75-22.3 35.05-19.88 33.35-17.45 33.3-13.75L33.3-13.75 33.3-8.2Q33.3-6.25 33.45-4.2 33.6-2.15 33.75-1.25L33.75-1.25 31.9-3.1 37.55-2.6 37.2 0 30.85 0Q30.35 0 29.4 0.05 28.45 0.1 27.37 0.15 26.3 0.2 25.35 0.25ZM68.05 0.5L68.05 0.5Q64.3 0.5 61.75-1.15 59.2-2.8 57.92-5.7 56.65-8.6 56.65-12.25L56.65-12.25Q56.65-15.95 57.8-18.85 58.95-21.75 61.34-23.43 63.75-25.1 67.4-25.1L67.4-25.1Q70.9-25.1 72.95-23.65 75-22.2 75.92-19.6 76.84-17 76.84-13.6L76.84-13.6 76.05-12 59.84-12 59.84-14.25 74.3-15.35 72.7-13.6Q72.7-14.25 72.72-14.88 72.75-15.5 72.75-16.25L72.75-16.25Q72.75-18.9 71.4-20.8 70.05-22.7 67.25-22.7L67.25-22.7Q65.4-22.7 64.15-21.78 62.9-20.85 62.2-19.3 61.5-17.75 61.2-15.98 60.9-14.2 60.9-12.45L60.9-12.45Q60.9-10.8 61.3-9.08 61.7-7.35 62.55-5.85 63.4-4.35 64.67-3.45 65.95-2.55 67.75-2.55L67.75-2.55Q70.09-2.55 72.22-3.28 74.34-4 75.45-4.65L75.45-4.65 76.75-2.45Q76.9-2.6 76.4-2.18 75.9-1.75 74.77-1.13 73.65-0.5 71.97 0 70.3 0.5 68.05 0.5ZM81.09 0.25L81.09 0.25 80.84-2.15 86.39-3.3 84.44-1.45Q84.49-1.85 84.69-2.85 84.89-3.85 85.07-4.98 85.24-6.1 85.24-6.7L85.24-6.7 85.24-22.7 85.89-22.1 81.29-22.1 81.14-24.2 85.84-24.8 85.24-23.9 85.24-29.95Q85.24-32.55 86.24-34.48 87.24-36.4 89.19-37.45 91.14-38.5 93.99-38.5L93.99-38.5Q94.84-38.5 95.69-38.38 96.54-38.25 96.94-38.15L96.94-38.15 96.39-31.45 94.44-31.6 94.44-33.35Q94.44-33.6 94.17-34.77 93.89-35.95 93.49-37.35L93.49-37.35 95.89-36Q95.49-36 95.04-36 94.59-36 94.19-36 93.79-36 93.49-36L93.49-36Q91.54-36 90.59-35.08 89.64-34.15 89.34-32.52 89.04-30.9 89.04-28.78 89.04-26.65 88.99-24.25L88.99-24.25 88.34-24.7 96.14-24.7 95.89-22.1 88.34-22.1 88.99-23 88.99-8.2Q88.99-6.25 89.14-4.2 89.29-2.15 89.44-1.25L89.44-1.25 87.59-3.1 94.29-2.6 93.99 0 86.59 0Q86.09 0 85.14 0.05 84.19 0.1 83.12 0.15 82.04 0.2 81.09 0.25ZM129.54 0.25L129.54 0.25 129.29-2.15 134.29-3.35 132.49-1.75Q132.64-2.3 132.79-3.2 132.94-4.1 133.06-5.08 133.19-6.05 133.19-6.7L133.19-6.7 133.19-13.6Q133.19-15.8 132.84-17.78 132.49-19.75 131.49-21 130.49-22.25 128.54-22.25L128.54-22.25Q125.64-22.25 123.94-19.83 122.24-17.4 122.14-13.7L122.14-13.7 120.89-18.45Q121.79-21.75 124.14-23.43 126.49-25.1 129.24-25.1L129.24-25.1Q132.49-25.1 134.14-23.68 135.79-22.25 136.37-19.65 136.94-17.05 136.94-13.55L136.94-13.55 136.94-8.2Q136.94-6.95 137.04-5.68 137.14-4.4 137.27-3.43 137.39-2.45 137.44-2L137.44-2 135.64-3.1 141.24-2.6 140.94 0 134.54 0Q134.29 0 133.42 0.05 132.54 0.1 131.47 0.15 130.39 0.2 129.54 0.25ZM99.44 0.25L99.44 0.25 99.19-2.15 104.79-3.3 102.79-1.45Q102.89-1.85 103.07-2.85 103.24-3.85 103.42-4.98 103.59-6.1 103.59-6.7L103.59-6.7 103.59-17.8Q103.59-18.45 103.44-19.58 103.29-20.7 103.09-21.83 102.89-22.95 102.79-23.45L102.79-23.45 104.79-21.15 99.29-22.1 99.54-24.7 105.74-24.7 106.69-23.8 107.39-16.45 107.39-8.2Q107.39-6.25 107.54-4.2 107.69-2.15 107.84-1.25L107.84-1.25 105.99-3.1 111.64-2.6 111.29 0 104.94 0Q104.44 0 103.49 0.05 102.54 0.1 101.47 0.15 100.39 0.2 99.44 0.25ZM114.74 0.25L114.74 0.25 114.49-2.15 119.49-3.35 117.69-1.75Q117.84-2.3 117.99-3.2 118.14-4.1 118.27-5.08 118.39-6.05 118.39-6.7L118.39-6.7 118.39-13.6Q118.39-15.8 118.04-17.78 117.69-19.75 116.69-21 115.69-22.25 113.74-22.25L113.74-22.25Q110.84-22.25 109.14-19.85 107.44-17.45 107.39-13.75L107.39-13.75 106.09-18.5Q106.69-20.7 107.97-22.15 109.24-23.6 110.92-24.35 112.59-25.1 114.44-25.1L114.44-25.1Q117.69-25.1 119.34-23.68 120.99-22.25 121.57-19.65 122.14-17.05 122.14-13.55L122.14-13.55 122.14-8.2Q122.14-6.95 122.24-5.68 122.34-4.4 122.47-3.43 122.59-2.45 122.64-2L122.64-2 120.84-3.1 126.49-2.6 126.14 0 119.74 0Q119.49 0 118.62 0.05 117.74 0.1 116.67 0.15 115.59 0.2 114.74 0.25ZM156.14 0.5L156.14 0.5Q152.39 0.5 149.84-1.15 147.29-2.8 146.01-5.7 144.74-8.6 144.74-12.25L144.74-12.25Q144.74-15.95 145.89-18.85 147.04-21.75 149.44-23.43 151.84-25.1 155.49-25.1L155.49-25.1Q158.99-25.1 161.04-23.65 163.09-22.2 164.01-19.6 164.94-17 164.94-13.6L164.94-13.6 164.14-12 147.94-12 147.94-14.25 162.39-15.35 160.79-13.6Q160.79-14.25 160.81-14.88 160.84-15.5 160.84-16.25L160.84-16.25Q160.84-18.9 159.49-20.8 158.14-22.7 155.34-22.7L155.34-22.7Q153.49-22.7 152.24-21.78 150.99-20.85 150.29-19.3 149.59-17.75 149.29-15.98 148.99-14.2 148.99-12.45L148.99-12.45Q148.99-10.8 149.39-9.08 149.79-7.35 150.64-5.85 151.49-4.35 152.76-3.45 154.04-2.55 155.84-2.55L155.84-2.55Q158.19-2.55 160.31-3.28 162.44-4 163.54-4.65L163.54-4.65 164.84-2.45Q164.99-2.6 164.49-2.18 163.99-1.75 162.86-1.13 161.74-0.5 160.06 0 158.39 0.5 156.14 0.5ZM169.29 0.25L169.29 0.25 169.04-2.15 174.64-3.3 172.64-1.45Q172.74-1.85 172.91-2.85 173.09-3.85 173.26-4.98 173.44-6.1 173.44-6.7L173.44-6.7 173.44-17.8Q173.44-18.45 173.29-19.58 173.14-20.7 172.94-21.83 172.74-22.95 172.64-23.45L172.64-23.45 174.64-21.15 169.14-22.1 169.39-24.7 175.59-24.7 176.54-23.8 177.24-16.3 176.14-19.2Q176.89-21.1 178.06-22.4 179.24-23.7 180.84-24.4 182.44-25.1 184.34-25.1L184.34-25.1Q187.89-25.1 189.69-23.68 191.49-22.25 192.14-19.65 192.79-17.05 192.79-13.55L192.79-13.55 192.79-8.2Q192.79-6.35 192.96-4.55 193.14-2.75 193.29-1.75L193.29-1.75 191.49-3.1 197.14-2.6 196.79 0 190.39 0Q190.19 0 189.29 0.05 188.39 0.1 187.31 0.15 186.24 0.2 185.39 0.25L185.39 0.25 185.14-2.15 190.14-3.35 188.29-2.2Q188.44-2.7 188.61-3.43 188.79-4.15 188.91-5 189.04-5.85 189.04-6.7L189.04-6.7 189.04-13.6Q189.04-15.8 188.64-17.78 188.24-19.75 187.09-21 185.94-22.25 183.74-22.25L183.74-22.25Q180.69-22.25 178.96-19.85 177.24-17.45 177.24-13.75L177.24-13.75 177.24-8.2Q177.24-6.25 177.39-4.2 177.54-2.15 177.69-1.25L177.69-1.25 175.84-3.1 181.49-2.6 181.14 0 174.79 0Q174.29 0 173.34 0.05 172.39 0.1 171.31 0.15 170.24 0.2 169.29 0.25ZM211.23 0.55L211.23 0.55Q207.73 0.55 206.01-0.93 204.28-2.4 203.73-5.03 203.18-7.65 203.18-11.05L203.18-11.05 203.18-17.8Q203.18-18.25 203.08-19.13 202.98-20 202.81-21.05 202.63-22.1 202.48-22.95L202.48-22.95 204.28-21.1 199.33-22.1 199.53-24.7 206.33-24.7 207.28-23.8Q207.23-22.75 207.13-21.35 207.03-19.95 206.98-18.6 206.93-17.25 206.93-16.3L206.93-16.3 206.93-9.15Q206.93-6.25 208.03-4.38 209.13-2.5 212.03-2.5L212.03-2.5Q214.18-2.5 215.58-3.65 216.98-4.8 217.71-6.63 218.43-8.45 218.43-10.4L218.43-10.4 218.43-17.8Q218.43-18.25 218.33-19.13 218.23-20 218.08-21.05 217.93-22.1 217.78-22.95L217.78-22.95 219.63-21.15 214.43-22.1 214.63-24.7 221.58-24.7 222.53-23.8Q222.48-22.75 222.41-21.35 222.33-19.95 222.28-18.6 222.23-17.25 222.23-16.3L222.23-16.3 222.23-8.2Q222.23-6.5 222.46-4.78 222.68-3.05 222.83-1.3L222.83-1.3 221.03-3.15 226.23-2.6 225.93 0 219.68 0 218.73-5.55 219.23-4.35Q218.93-3.75 218.06-2.58 217.18-1.4 215.56-0.43 213.93 0.55 211.23 0.55Z" opacity="1" transform="matrix(1,0,0,1,0,0)" fill="#000000" class="wordmark-text-0" data-fill-palette-color="quaternary" id="text-0"></path></svg></g></svg></g></svg></g></svg></g><g></g></svg></g><defs></defs></svg><rect width="395.52" height="101.99036507964864" fill="none" stroke="none" visibility="hidden"></rect></g></svg></g></svg>